name Walk8.mot
datacolumns 19
datarows 17
range 2.93500000 3.01500000
endheader

                time	   L_ground_force_vx	   L_ground_force_vy	   L_ground_force_vz	   L_ground_force_px	   L_ground_force_py	   L_ground_force_pz	   R_ground_force_vx	   R_ground_force_vy	   R_ground_force_vz	   R_ground_force_px	   R_ground_force_py	   R_ground_force_pz	   L_ground_torque_x	   L_ground_torque_y	   L_ground_torque_z	   R_ground_torque_x	   R_ground_torque_y	   R_ground_torque_z	
          2.93500000	          0.00679022	          0.00636491	         -0.00258063	         -0.00016635	          0.00000000	         -0.00003876	         -0.20250514	        730.14306817	        -50.09596640	          0.12221802	          0.00000000	          0.13816749	          0.00000000	          0.00004405	          0.00000000	          0.00000000	         12.21530454	          0.00000000	
          2.94000000	          0.00154652	         -0.00715995	         -0.00228649	         -0.00011149	          0.00000000	         -0.00002585	          1.39878416	        727.32980391	        -50.33818905	          0.12328313	          0.00000000	          0.13883914	          0.00000000	          0.00004505	          0.00000000	          0.00000000	         12.02760661	          0.00000000	
          2.94500000	         -0.00193847	         -0.01526691	         -0.00191703	         -0.00006750	          0.00000000	         -0.00001552	          2.94750985	        724.75914351	        -50.62150854	          0.12432997	          0.00000000	          0.13950169	          0.00000000	          0.00004212	          0.00000000	          0.00000000	         11.84594077	          0.00000000	
          2.95000000	         -0.00402002	         -0.01925832	         -0.00152849	         -0.00003395	          0.00000000	         -0.00000767	          4.44846285	        722.46796569	        -50.91193524	          0.12535540	          0.00000000	          0.14015106	          0.00000000	          0.00003691	          0.00000000	          0.00000000	         11.67022931	          0.00000000	
          2.95500000	         -0.00503695	         -0.02029483	         -0.00115844	         -0.00000974	          0.00000000	         -0.00000203	          5.90913682	        720.49143213	        -51.18079003	          0.12635668	          0.00000000	          0.14078355	          0.00000000	          0.00003065	          0.00000000	          0.00000000	         11.49968835	          0.00000000	
          2.96000000	         -0.00529072	         -0.01935445	         -0.00082951	          0.00000655	          0.00000000	          0.00000174	          7.33856546	        718.85831955	        -51.40770993	          0.12733082	          0.00000000	          0.14139571	          0.00000000	          0.00002421	          0.00000000	          0.00000000	         11.33265114	          0.00000000	
          2.96500000	         -0.00503502	         -0.01722070	         -0.00055298	          0.00001648	          0.00000000	          0.00000403	          8.74603869	        717.59302607	        -51.58262614	          0.12827476	          0.00000000	          0.14198590	          0.00000000	          0.00001817	          0.00000000	          0.00000000	         11.16678384	          0.00000000	
          2.97000000	         -0.00447284	         -0.01449042	         -0.00033191	          0.00002154	          0.00000000	          0.00000517	         10.14188542	        716.71757596	        -51.70669716	          0.12918671	          0.00000000	          0.14255482	          0.00000000	          0.00001286	          0.00000000	          0.00000000	         10.99931305	          0.00000000	
          2.97500000	         -0.00375858	         -0.01159352	         -0.00016389	          0.00002308	          0.00000000	          0.00000550	         11.53721682	        716.25084623	        -51.79131646	          0.13006758	          0.00000000	          0.14310509	          0.00000000	          0.00000843	          0.00000000	          0.00000000	         10.82753869	          0.00000000	
          2.98000000	         -0.00300328	         -0.00881889	         -0.00004318	          0.00002225	          0.00000000	          0.00000527	         12.94269095	        716.20361662	        -51.85519521	          0.13091930	          0.00000000	          0.14363920	          0.00000000	          0.00000493	          0.00000000	          0.00000000	         10.64923991	          0.00000000	
          2.98500000	         -0.00228140	         -0.00634211	          0.00003764	          0.00001995	          0.00000000	          0.00000471	         14.36697189	        716.57516752	        -51.92092411	          0.13174474	          0.00000000	          0.14415906	          0.00000000	          0.00000229	          0.00000000	          0.00000000	         10.46275547	          0.00000000	
          2.99000000	         -0.00163803	         -0.00425221	          0.00008650	          0.00001690	          0.00000000	          0.00000398	         15.81589165	        717.34986649	        -52.01111408	          0.13254765	          0.00000000	          0.14466534	          0.00000000	          0.00000042	          0.00000000	          0.00000000	         10.26696886	          0.00000000	
          2.99500000	         -0.00109591	         -0.00257570	          0.00011098	          0.00001361	          0.00000000	          0.00000319	         17.29111718	        718.49501964	        -52.14469486	          0.13333228	          0.00000000	          0.14515759	          0.00000000	         -0.00000081	          0.00000000	          0.00000000	         10.06118139	          0.00000000	
          3.00000000	         -0.00066158	         -0.00129688	          0.00011791	          0.00001042	          0.00000000	          0.00000244	         18.78990087	        719.96324711	        -52.33368372	          0.13410364	          0.00000000	          0.14563523	          0.00000000	         -0.00000154	          0.00000000	          0.00000000	          9.84536563	          0.00000000	
          3.00500000	         -0.00033074	         -0.00037423	          0.00011303	          0.00000755	          0.00000000	          0.00000176	         20.30516201	        721.69496076	        -52.58153919	          0.13486556	          0.00000000	          0.14609789	          0.00000000	         -0.00000188	          0.00000000	          0.00000000	          9.61998862	          0.00000000	
          3.01000000	         -0.00009241	          0.00024704	          0.00010096	          0.00000512	          0.00000000	          0.00000119	         21.82670411	        723.62552153	        -52.88379293	          0.13562037	          0.00000000	          0.14654618	          0.00000000	         -0.00000196	          0.00000000	          0.00000000	          9.38594940	          0.00000000	
          3.01500000	          0.00006773	          0.00062592	          0.00008523	          0.00000315	          0.00000000	          0.00000073	         23.34352311	        725.69327853	        -53.23064472	          0.13636968	          0.00000000	          0.14698030	          0.00000000	         -0.00000185	          0.00000000	          0.00000000	          9.14461741	          0.00000000	
